<?xml version="1.0" encoding="utf-8"?>
<!-- Generator: Adobe Illustrator 24.1.2, SVG Export Plug-In . SVG Version: 6.00 Build 0)  -->
<svg version="1.1" id="Capa_1" xmlns="http://www.w3.org/2000/svg" xmlns:xlink="http://www.w3.org/1999/xlink" x="0px" y="0px"
	 viewBox="0 0 612 612" style="enable-background:new 0 0 612 612;" xml:space="preserve">
<style type="text/css">
	.st0{fill:#F0AD4E;}
</style>
<g>
	<g id="backspace">
		<path class="st0" d="M561,76.5H178.5c-17.9,0-30.6,7.7-40.8,22.9L0,306l137.7,206.5c10.2,12.8,22.9,23,40.8,23H561
			c28,0,51-23,51-51v-357C612,99.4,589,76.5,561,76.5z M484.5,397.8l-35.7,35.7L357,341.7l-91.8,91.8l-35.7-35.7l91.8-91.8
			l-91.8-91.8l35.7-35.7l91.8,91.8l91.8-91.8l35.7,35.7L392.7,306L484.5,397.8z"/>
	</g>
</g>
</svg>
